<?xml version="1.0" standalone="no"?>
<svg version="1.0" xmlns="http://www.w3.org/2000/svg"
fill="#5ABB96"
 width="50" height="50">

<path d="M8940 18883 c-214 -18 -553 -91 -809 -175 -441 -144 -1072 -466
-1568 -800 -617 -414 -1184 -907 -1740 -1513 -199 -216 -234 -268 -251 -380
-32 -204 99 -388 302 -426 143 -26 277 33 375 165 103 139 501 546 766 784
441 396 865 711 1300 968 195 114 651 344 830 418 339 139 665 212 995 223
264 9 429 -19 596 -102 105 -51 171 -98 342 -242 312 -262 484 -356 782 -424
117 -26 316 -36 420 -20 137 21 241 94 297 209 38 79 44 202 13 285 -29 76
-74 134 -140 179 -78 53 -151 70 -275 62 -114 -6 -210 13 -322 66 -86 40 -125
68 -319 230 -93 77 -207 166 -253 197 -240 160 -489 253 -774 288 -111 14
-438 18 -567 8z"/>
<path d="M12185 17996 c-70 -17 -111 -41 -171 -98 -95 -90 -135 -231 -99 -353
32 -112 63 -150 250 -305 355 -293 593 -596 846 -1074 95 -179 143 -237 236
-282 51 -25 70 -28 153 -29 88 0 101 3 162 33 126 62 198 170 206 309 6 107
-4 135 -124 358 -218 404 -417 683 -684 959 -148 153 -463 426 -525 455 -87
41 -161 49 -250 27z"/>
<path d="M8380 16640 c-270 -48 -450 -311 -394 -577 8 -38 42 -127 79 -203 35
-75 71 -153 79 -175 8 -22 33 -85 56 -140 114 -274 272 -703 378 -1025 164
-499 243 -771 367 -1270 52 -212 129 -518 170 -680 41 -162 99 -401 129 -530
31 -129 74 -311 96 -405 23 -93 72 -325 110 -515 38 -190 81 -401 95 -470 15
-69 41 -206 60 -305 37 -200 52 -247 96 -317 110 -171 332 -255 534 -203 185
49 326 208 355 402 10 64 8 90 -15 230 -15 87 -48 264 -75 394 -27 130 -65
330 -85 445 -72 416 -107 569 -311 1351 -57 221 -104 406 -104 411 0 11 21 15
305 58 238 36 412 68 615 115 299 68 672 170 739 202 106 49 198 147 241 257
104 264 -45 566 -319 647 -109 32 -189 23 -461 -50 -399 -107 -613 -154 -920
-201 -203 -32 -362 -46 -415 -37 -36 6 -41 10 -52 46 -190 640 -402 1253 -608
1765 -168 416 -242 565 -320 643 -113 113 -272 164 -425 137z"/>
<path d="M14750 16075 c-129 -18 -177 -30 -305 -71 -209 -68 -454 -199 -658
-353 -349 -263 -679 -659 -874 -1049 -56 -110 -57 -113 -57 -200 0 -67 5 -100
22 -144 30 -75 96 -146 174 -189 60 -33 67 -34 168 -34 92 0 112 3 160 26 73
34 138 101 185 191 185 355 454 665 744 860 464 311 865 312 1010 4 103 -217
81 -581 -55 -927 -99 -253 -269 -529 -452 -732 -30 -34 -69 -91 -86 -127 -26
-56 -30 -76 -30 -150 -1 -75 3 -93 30 -150 39 -83 101 -145 184 -184 58 -27
75 -31 155 -31 156 0 228 49 418 288 507 636 740 1417 606 2032 -95 437 -356
748 -746 888 -159 57 -408 79 -593 52z"/>
<path d="M7313 15836 c-254 -62 -422 -331 -358 -576 9 -36 19 -83 22 -105 8
-56 -14 -166 -52 -266 -18 -47 -40 -115 -49 -150 -24 -91 -167 -377 -281 -559
-54 -85 -170 -265 -259 -400 -471 -711 -582 -922 -801 -1525 -189 -521 -529
-1722 -660 -2329 -65 -304 -47 -451 75 -604 192 -244 589 -229 770 29 54 77
75 139 100 296 38 235 127 593 279 1128 84 292 170 589 192 660 143 462 285
841 401 1067 76 148 462 767 479 768 3 0 18 -46 33 -102 16 -57 66 -215 111
-353 205 -622 388 -1074 524 -1299 l50 -81 -9 -570 c-12 -773 -17 -907 -42
-1145 -21 -196 -21 -209 -5 -273 23 -93 62 -169 121 -232 231 -249 639 -187
794 121 33 65 67 277 86 539 8 106 21 972 21 1390 0 463 -6 492 -139 694 -105
160 -205 391 -374 866 -204 572 -285 872 -464 1731 -9 46 -7 66 20 175 43 175
53 251 52 418 0 188 -15 287 -60 386 -106 235 -342 358 -577 301z"/>
<path d="M3735 15299 c-311 -30 -563 -133 -763 -314 -122 -110 -272 -351 -357
-576 -146 -381 -150 -853 -12 -1215 105 -272 207 -415 627 -879 275 -303 275
-303 335 -505 43 -147 67 -192 135 -253 90 -81 215 -112 330 -83 112 29 193
94 247 199 21 41 27 70 31 137 4 75 0 100 -33 215 -82 293 -148 404 -401 684
-392 432 -473 532 -539 666 -73 146 -88 224 -82 434 5 211 19 267 108 450 91
187 162 245 344 287 117 27 542 27 664 1 234 -50 605 -218 725 -326 65 -59
125 -88 201 -99 123 -16 220 15 309 97 129 121 152 319 55 472 -65 102 -174
184 -409 307 -328 171 -629 272 -902 301 -113 13 -482 12 -613 0z"/>
<path d="M12805 12940 c-27 -5 -131 -34 -230 -65 -349 -109 -640 -188 -858
-235 -116 -25 -153 -40 -226 -90 -113 -76 -183 -173 -215 -297 -68 -263 100
-530 373 -593 68 -16 187 -8 266 19 33 10 112 31 175 46 243 55 930 260 1009
299 182 93 289 294 262 491 -17 121 -54 197 -140 288 -97 103 -275 162 -416
137z"/>
<path d="M15408 12838 c-114 -15 -219 -93 -274 -204 -24 -48 -30 -75 -32 -144
-5 -117 16 -168 133 -327 155 -210 361 -564 555 -953 270 -540 427 -952 786
-2060 58 -179 117 -347 132 -373 34 -63 90 -112 169 -149 190 -89 430 15 500
217 33 97 24 166 -51 400 -292 909 -504 1499 -686 1910 -180 406 -531 1055
-718 1325 -91 131 -193 260 -224 283 -85 64 -182 89 -290 75z"/>
<path d="M14480 11729 c-76 -15 -184 -75 -245 -136 -98 -99 -155 -255 -140
-388 3 -33 23 -130 45 -215 33 -133 62 -277 84 -410 26 -164 36 -570 16 -700
-34 -221 -91 -373 -198 -520 -34 -47 -96 -132 -137 -189 -248 -342 -426 -745
-484 -1092 -38 -228 -43 -355 -36 -864 9 -618 9 -622 -90 -845 -77 -174 -143
-299 -194 -365 -132 -174 -163 -237 -176 -355 -20 -189 95 -393 268 -478 83
-41 154 -55 246 -50 156 10 262 71 381 218 162 200 279 414 446 815 111 267
147 608 108 1013 -10 94 -15 174 -12 177 3 3 45 -11 94 -31 273 -113 737 -241
1015 -278 242 -33 505 -44 589 -25 79 18 166 67 227 127 268 264 160 700 -202
815 -30 10 -123 20 -233 27 -285 17 -539 68 -857 175 -188 63 -419 171 -441
206 -10 16 76 152 213 336 188 255 266 395 337 612 88 270 117 453 121 761 5
410 -26 688 -125 1095 -21 88 -41 176 -45 195 -4 19 -22 67 -40 105 -93 195
-318 306 -535 264z"/>
<path d="M3723 11156 c-148 -48 -250 -175 -261 -325 -2 -36 3 -122 12 -189 29
-225 17 -512 -34 -814 -31 -178 -155 -754 -207 -958 -25 -96 -71 -278 -104
-405 -109 -422 -112 -437 -113 -580 -1 -110 3 -141 22 -205 94 -297 405 -672
725 -873 181 -114 393 -177 599 -177 l76 0 22 -72 c33 -107 148 -532 233 -858
83 -315 121 -427 207 -606 46 -95 69 -130 105 -162 59 -52 117 -80 195 -94
242 -45 473 191 421 433 -7 29 -32 97 -56 151 -69 150 -77 175 -194 618 -123
464 -204 751 -251 885 -84 237 -191 359 -376 427 -53 20 -79 22 -264 23 -187
1 -209 3 -252 22 -136 62 -310 224 -425 397 -36 54 -46 77 -45 106 1 21 45
206 98 411 127 492 141 550 218 909 129 605 156 805 156 1155 0 180 -6 261
-36 492 -13 106 -104 221 -212 271 -69 31 -192 40 -259 18z"/>
<path d="M11980 10119 c-24 -5 -137 -40 -250 -78 -454 -154 -1072 -305 -1540
-377 -150 -23 -222 -27 -505 -33 -298 -7 -336 -10 -395 -29 -142 -47 -248
-147 -309 -291 -35 -82 -40 -217 -13 -308 51 -168 183 -296 350 -338 91 -23
656 -14 866 14 88 12 163 18 166 14 16 -17 72 -531 90 -818 14 -225 13 -316
-6 -340 -26 -35 -585 -594 -689 -689 -115 -105 -265 -225 -516 -414 -249 -185
-295 -242 -339 -416 -56 -220 6 -357 225 -499 97 -64 235 -88 351 -64 90 19
150 49 250 127 43 33 99 75 124 92 83 59 354 272 460 362 58 49 261 245 453
435 l347 346 63 -3 c81 -4 285 -58 467 -122 511 -182 660 -229 990 -314 173
-44 230 -50 309 -36 109 20 187 57 257 123 226 211 199 585 -55 756 -73 49
-111 63 -279 106 -255 64 -445 122 -737 228 -261 94 -409 140 -620 194 l-70
18 -12 185 c-14 236 -27 367 -64 664 -16 131 -29 251 -29 265 0 25 5 27 203
80 256 68 705 214 778 253 185 97 289 320 245 526 -54 259 -310 431 -566 381z"/>
<path d="M6124 9651 c-97 -25 -194 -102 -237 -187 -69 -136 -61 -295 32 -691
187 -793 286 -1098 477 -1473 105 -206 180 -304 401 -532 l193 -197 59 -123
c32 -68 103 -242 156 -387 115 -313 216 -553 330 -786 164 -335 323 -526 576
-691 233 -153 474 -230 914 -293 514 -73 596 -82 660 -70 139 25 245 118 286
250 68 219 -64 438 -291 479 -30 5 -163 23 -295 40 -468 59 -641 96 -790 171
-162 80 -267 192 -374 398 -78 152 -204 446 -286 668 -175 471 -259 658 -357
788 -29 39 -132 151 -229 250 -96 99 -194 207 -216 240 -108 160 -258 530
-348 853 -28 100 -166 672 -184 762 -6 30 -15 106 -20 168 -11 136 -36 196
-111 266 -72 67 -146 99 -240 102 -41 2 -89 0 -106 -5z"/>
<path d="M17057 7939 c-103 -24 -202 -105 -251 -204 -26 -55 -29 -71 -42 -279
-16 -261 -22 -308 -70 -549 -84 -427 -181 -807 -208 -807 -70 -1 -318 -33
-378 -49 -263 -68 -519 -218 -663 -387 -58 -69 -179 -249 -235 -349 -104 -188
-408 -617 -589 -830 -491 -579 -851 -904 -1246 -1123 -205 -114 -389 -179
-652 -231 -120 -24 -168 -46 -234 -108 -150 -141 -152 -381 -3 -530 64 -64
140 -96 239 -101 151 -8 536 94 792 211 545 246 1074 691 1674 1407 216 257
527 695 654 920 77 135 161 255 202 287 96 76 221 119 389 133 179 15 361 53
437 91 127 64 226 188 308 383 73 176 134 412 233 907 58 288 69 366 86 594
20 279 8 376 -57 465 -88 121 -246 182 -386 149z"/>
<path d="M6107 5170 c-206 -52 -330 -268 -268 -466 36 -117 81 -165 341 -363
440 -336 1207 -830 1695 -1093 152 -82 774 -401 1440 -738 676 -343 950 -492
1070 -582 67 -51 174 -102 260 -125 60 -15 109 -18 330 -18 273 0 442 18 612
64 215 59 333 96 376 119 62 33 122 99 155 170 23 49 27 70 27 152 0 82 -4
103 -27 152 -34 74 -113 152 -186 186 -48 23 -71 27 -147 27 -77 0 -111 -7
-235 -44 -80 -24 -161 -47 -181 -52 -79 -19 -291 -39 -410 -39 l-126 0 -44 33
c-24 19 -75 52 -114 74 -38 22 -130 74 -203 117 -125 72 -508 269 -1407 726
-868 441 -1061 547 -1485 813 -398 250 -849 566 -1165 817 -27 22 -70 47 -95
55 -56 20 -163 27 -213 15z"/>
</svg>
