<?xml version="1.0" standalone="no"?>
<svg version="1.0" xmlns="http://www.w3.org/2000/svg" fill="#5ABB96"
 width="50" height="50">
<path d="M7850 19469 c-430 -44 -1000 -247 -1501 -534 -947 -545 -1674 -1368
-1898 -2148 -71 -250 -96 -461 -88 -756 10 -400 96 -718 258 -958 27 -40 49
-77 49 -83 0 -5 -53 -76 -118 -158 -294 -368 -596 -829 -777 -1185 -70 -137
-70 -138 -70 -220 0 -69 4 -91 28 -139 36 -72 98 -134 167 -167 45 -21 70 -25
140 -26 73 0 93 4 141 28 78 38 134 103 203 232 209 392 499 819 808 1191 160
193 553 589 738 744 857 720 1847 1166 2915 1314 301 41 450 51 805 51 426 0
731 -27 1127 -101 1065 -196 2145 -684 3116 -1407 111 -83 147 -115 147 -132
0 -12 -24 -120 -54 -241 -117 -472 -126 -528 -107 -665 21 -145 88 -246 200
-297 241 -111 499 80 476 353 -6 64 0 96 75 395 118 475 223 776 382 1095 164
329 314 549 495 727 104 102 170 151 278 203 188 91 371 125 568 106 458 -46
816 -190 1137 -459 126 -105 242 -229 396 -420 297 -371 411 -592 538 -1047
98 -353 129 -547 130 -800 0 -223 -15 -328 -75 -510 -91 -277 -225 -487 -395
-625 -218 -175 -645 -330 -1270 -460 -289 -61 -393 -90 -501 -140 -165 -77
-297 -188 -407 -344 -62 -87 -189 -338 -207 -410 -24 -97 9 -228 79 -307 17
-20 60 -51 94 -70 58 -32 70 -34 153 -34 170 0 242 57 348 273 74 152 129 225
201 267 52 30 136 53 411 110 491 103 852 217 1170 370 385 185 646 451 845
860 105 215 163 393 206 630 23 128 27 598 6 740 -40 266 -115 579 -204 855
-139 429 -318 738 -679 1171 -436 522 -952 845 -1549 967 -240 49 -311 57
-535 57 -245 0 -311 -11 -535 -84 -276 -92 -455 -199 -664 -401 -257 -248
-524 -652 -719 -1087 -21 -46 -42 -83 -47 -83 -5 0 -58 35 -117 78 -1134 823
-2455 1354 -3733 1501 -290 33 -480 44 -795 43 -418 -1 -816 -36 -1175 -106
-69 -13 -129 -20 -134 -16 -15 15 154 325 346 635 197 318 259 445 298 607 96
399 -140 824 -532 959 -46 15 -116 35 -157 44 -94 19 -308 27 -431 14z m322
-685 c80 -20 100 -35 127 -93 22 -47 23 -50 7 -103 -21 -72 -66 -155 -216
-398 -185 -300 -214 -354 -445 -815 -193 -386 -213 -421 -245 -438 -19 -9
-107 -47 -195 -83 -203 -82 -578 -267 -760 -374 -426 -250 -800 -528 -1175
-873 -58 -54 -110 -97 -117 -97 -14 0 -45 81 -72 187 -76 304 -60 669 44 981
67 200 235 487 421 719 351 438 919 871 1479 1127 302 138 622 238 860 269 80
10 231 6 287 -9z"/>
<path d="M3450 12858 c-95 -33 -158 -85 -275 -225 -402 -482 -632 -919 -894
-1699 -170 -508 -250 -866 -293 -1304 -18 -185 -18 -995 0 -1140 61 -494 206
-1036 419 -1575 167 -424 303 -659 685 -1187 355 -491 422 -571 744 -888 246
-242 276 -263 388 -283 152 -26 321 67 383 212 39 91 35 218 -9 305 -12 24
-132 154 -282 306 -271 275 -325 339 -594 707 -220 302 -409 592 -494 758
-184 361 -375 928 -467 1390 -54 267 -62 358 -68 702 -11 683 47 1073 254
1708 186 571 352 934 571 1250 86 125 235 306 289 351 91 77 142 213 123 330
-37 224 -265 357 -480 282z"/>
<path d="M7285 12699 c-180 -27 -343 -183 -387 -371 -16 -64 -16 -487 -1 -593
6 -38 9 -73 7 -76 -2 -4 -34 23 -71 60 -155 154 -355 189 -548 98 -83 -40
-166 -117 -207 -193 -15 -27 -38 -90 -53 -139 -34 -118 -61 -172 -142 -280
-128 -171 -327 -352 -500 -454 -138 -82 -334 -147 -531 -176 -125 -19 -211
-14 -382 21 -133 28 -181 29 -268 9 -91 -22 -158 -60 -228 -129 -70 -71 -107
-137 -130 -233 -29 -125 3 -275 80 -381 83 -112 170 -161 360 -202 279 -61
493 -65 803 -14 l42 6 16 -58 c30 -109 107 -338 147 -439 46 -114 148 -322
206 -416 70 -115 72 -94 -21 -210 -186 -236 -316 -476 -406 -749 -75 -232 -95
-448 -52 -581 70 -218 265 -352 491 -336 96 7 175 37 253 95 110 85 175 209
184 357 12 190 122 431 293 640 134 164 387 369 590 478 162 87 258 110 565
136 133 11 203 35 288 99 326 248 199 769 -206 843 -55 10 -104 10 -248 0 -98
-7 -183 -10 -189 -6 -20 13 -135 195 -185 296 -134 266 -187 438 -205 670
l-12 144 73 110 c120 179 187 325 239 524 6 23 13 41 16 38 3 -2 25 -82 50
-177 224 -867 664 -1709 1164 -2223 119 -124 263 -246 340 -290 149 -84 351
-75 498 23 149 100 231 287 203 462 -18 114 -67 204 -153 280 -285 253 -447
451 -633 772 -73 128 -215 411 -215 430 0 8 83 78 184 154 433 329 559 438
609 530 54 99 70 237 42 347 -77 295 -410 443 -680 302 -27 -14 -142 -101
-255 -191 -113 -91 -208 -166 -213 -166 -14 0 -24 43 -47 195 -17 115 -23 203
-24 375 -2 176 -6 234 -18 266 -89 233 -297 359 -533 323z m-1278 -2740 c88
-244 179 -450 271 -614 28 -49 49 -92 46 -96 -2 -4 -50 -35 -105 -70 -120 -74
-101 -83 -189 96 -70 144 -138 329 -182 496 -37 140 -45 116 67 189 33 21 64
37 70 36 5 -1 15 -18 22 -37z"/>
<path d="M12033 10836 c-159 -39 -280 -146 -340 -303 -20 -55 -25 -86 -25
-159 -1 -86 3 -100 71 -300 105 -305 164 -497 236 -768 133 -502 154 -604 246
-1171 27 -170 63 -386 79 -480 25 -143 68 -443 95 -652 5 -36 3 -53 -4 -53 -6
0 -11 4 -11 9 0 4 -27 37 -59 73 -163 177 -371 200 -926 99 -228 -42 -208 -42
-216 -1 -4 19 -22 125 -39 235 -46 291 -135 800 -180 1028 -22 109 -46 238
-55 286 -19 113 -85 574 -85 599 0 23 9 25 240 47 314 31 418 64 526 170 109
107 162 267 135 412 -42 228 -228 391 -451 396 -41 1 -140 -6 -220 -16 -288
-36 -468 -57 -605 -72 -259 -27 -370 -68 -476 -175 -113 -114 -167 -255 -156
-405 13 -169 128 -991 171 -1220 13 -71 47 -250 75 -397 49 -258 138 -778 161
-943 51 -361 123 -648 193 -767 77 -132 239 -232 396 -245 72 -6 70 -6 549 86
367 71 504 91 611 91 100 0 189 27 270 81 92 61 136 124 198 279 9 23 11 21
42 -37 97 -181 308 -288 500 -254 231 41 400 240 401 468 0 34 -9 131 -21 215
-11 84 -31 234 -44 333 -14 99 -53 350 -87 559 -61 372 -62 379 -42 393 10 8
138 53 284 100 146 47 291 99 322 115 108 57 200 177 233 305 76 291 -150 582
-454 584 -91 1 -135 -10 -376 -91 -167 -56 -215 -68 -215 -55 0 3 -32 126 -70
273 -72 273 -192 664 -260 852 -21 58 -48 131 -59 163 -80 232 -325 369 -558
313z"/>
<path d="M16201 9325 c-112 -35 -218 -149 -240 -258 -6 -29 -13 -245 -15 -482
-5 -455 -14 -582 -62 -870 -89 -536 -276 -1002 -587 -1470 -488 -732 -1162
-1370 -2057 -1945 -303 -195 -770 -446 -1125 -605 -656 -294 -1471 -537 -2145
-639 -355 -54 -456 -61 -895 -59 -225 0 -477 6 -560 12 -302 23 -445 25 -506
7 -254 -73 -348 -391 -173 -585 56 -63 154 -113 227 -118 29 -1 160 -10 292
-20 351 -25 1117 -25 1345 0 650 71 1242 205 1924 437 1061 360 2045 908 2913
1621 727 598 1349 1357 1684 2055 228 475 354 927 419 1493 24 210 40 745 30
1006 -5 147 -8 165 -33 220 -30 65 -81 123 -138 160 -80 52 -207 68 -298 40z"/>
<path d="M5577 6575 c-222 -61 -375 -277 -354 -498 11 -115 176 -621 334
-1022 93 -238 249 -556 343 -699 39 -60 82 -130 95 -156 38 -74 116 -153 193
-193 72 -38 206 -76 357 -101 374 -63 1055 -42 1595 50 483 82 753 155 885
239 126 80 215 240 215 386 0 231 -149 421 -371 474 -110 26 -178 18 -334 -38
-38 -14 -182 -48 -320 -76 -445 -89 -699 -115 -1125 -115 -323 0 -326 0 -398
79 -43 45 -150 255 -225 440 -83 204 -247 676 -303 870 -52 185 -179 315 -349
360 -71 18 -172 18 -238 0z"/>
<path d="M5257 4216 c-148 -61 -229 -181 -229 -341 0 -72 4 -86 39 -154 25
-49 53 -87 83 -112 57 -47 1709 -854 1794 -876 153 -39 332 48 403 196 38 79
43 194 14 272 -28 74 -71 132 -125 170 -50 36 -1655 821 -1735 850 -76 27
-170 25 -244 -5z"/>
</svg>
